Coordinates
version=1
nRows=22
nColumns=24
inDegrees=yes

Units are S.I. units (second, meters, Newtons, ...)
Angles are in degrees.

endheader
time	pelvis_tilt	pelvis_list	pelvis_rotation	pelvis_tx	pelvis_ty	pelvis_tz	hip_flexion_r	hip_adduction_r	hip_rotation_r	knee_angle_r	ankle_angle_r	subtalar_angle_r	mtp_angle_r	hip_flexion_l	hip_adduction_l	hip_rotation_l	knee_angle_l	ankle_angle_l	subtalar_angle_l	mtp_angle_l	lumbar_extension	lumbar_bending	lumbar_rotation
      0.85850000	      0.54812048	      1.04066662	      2.98565436	     -0.32345404	      1.08534125	      0.33311006	      5.97319777	      1.40530077	     -4.36592835	    -13.36360534	      8.97858483	     -3.11119826	      6.75853180	     15.53045705	     -3.13124431	     -4.33320310	    -64.66118354	     10.17639460	      6.48941987	      6.52268112	     -6.71031041	      5.01612233	     -1.19004472
      0.86266667	      0.56883872	      1.16296915	      2.81294051	     -0.31872729	      1.08595670	      0.33375126	      5.51655817	      1.34506737	     -4.12216752	    -13.02358944	      9.04309594	     -3.20058288	      6.73063836	     15.92768630	     -3.04703424	     -4.59574351	    -64.06409664	     10.35686349	      6.66420418	      6.51512559	     -6.74304315	      4.83699890	     -0.91826578
      0.86683333	      0.55060804	      1.29692476	      2.64586788	     -0.31399561	      1.08647388	      0.33435344	      5.12099677	      1.25681030	     -3.94704416	    -12.72661833	      9.10758555	     -3.16172152	      6.72227894	     16.35989564	     -2.94154918	     -4.85137005	    -63.43360924	     10.51748695	      6.76484040	      6.51382309	     -6.72922724	      4.64801029	     -0.87874560
      0.87100000	      0.58215204	      1.41287482	      2.47344409	     -0.30930300	      1.08702415	      0.33497576	      4.65971825	      1.19741222	     -3.70635924	    -12.39559127	      9.17154975	     -3.26516363	      6.69494082	     16.73031180	     -2.86760059	     -5.11213140	    -62.76979247	     10.66267912	      6.92338131	      6.50515254	     -6.78036611	      4.48153784	     -0.64104031
      0.87516667	      0.54415582	      1.54796531	      2.30705362	     -0.30459374	      1.08741865	      0.33555726	      4.29307605	      1.10126985	     -3.53407499	    -12.10803636	      9.24515865	     -3.22703037	      6.68795451	     17.16802573	     -2.75943179	     -5.36159046	    -62.07373696	     10.79012622	      7.00555469	      6.50270024	     -6.74181192	      4.28975488	     -0.61086944
      0.87933333	      0.56009735	      1.66327746	      2.13562428	     -0.29992388	      1.08786045	      0.33615524	      3.85881768	      1.03477888	     -3.29774651	    -11.79384690	      9.31419110	     -3.33742646	      6.66211562	     17.53837089	     -2.68193538	     -5.61105755	    -61.34346743	     10.89429513	      7.11600352	      6.49098313	     -6.77589824	      4.12582230	     -0.38618549
      0.88350000	      0.54544766	      1.79137642	      1.96843843	     -0.29525877	      1.08820801	      0.33671838	      3.47657487	      0.94216608	     -3.12086301	    -11.51991499	      9.39013766	     -3.33660540	      6.65022495	     17.93185944	     -2.58197777	     -5.84978989	    -60.57844723	     10.98918200	      7.18751944	      6.48406850	     -6.76829642	      3.96070304	     -0.32959756
      0.88766667	      0.52168757	      1.90170414	      1.81950716	     -0.29059942	      1.08847298	      0.33725552	      3.09700535	      0.86729868	     -2.95451571	    -11.22823302	      9.47539525	     -3.32116848	      6.64348757	     18.33823480	     -2.50023618	     -6.06905230	    -59.80429093	     11.07316504	      7.23522310	      6.47885055	     -6.75685890	      3.78780625	     -0.27736625
      0.89183333	      0.51338340	      2.02602667	      1.65121766	     -0.28596866	      1.08875580	      0.33779092	      2.71548593	      0.77536168	     -2.75679104	    -10.96533873	      9.55660184	     -3.39387476	      6.62967933	     18.70355969	     -2.40044231	     -6.29419084	    -58.96823398	     11.12119576	      7.26948060	      6.46763327	     -6.76496555	      3.63367909	     -0.14099361
      0.89600000	      0.49992635	      2.13178005	      1.49907497	     -0.28134966	      1.08895615	      0.33830166	      2.33522978	      0.70123270	     -2.57362308	    -10.68972590	      9.63773411	     -3.43844049	      6.61593994	     19.07656356	     -2.31924926	     -6.49978134	    -58.12514959	     11.17138064	      7.27862645	      6.45487399	     -6.76829417	      3.48265395	     -0.03003289
      0.90016667	      0.45850659	      2.22307316	      1.36033360	     -0.27672729	      1.08905814	      0.33878223	      1.98373166	      0.64084938	     -2.38579562	    -10.41139978	      9.72043873	     -3.51163626	      6.59474537	     19.47755222	     -2.24778099	     -6.68240697	    -57.26594745	     11.19768502	      7.24365486	      6.43419795	     -6.73946841	      3.33676589	      0.11090316
      0.90433333	      0.41800144	      2.31353902	      1.22628963	     -0.27211655	      1.08912924	      0.33922702	      1.64305751	      0.57341784	     -2.24751830	    -10.15650704	      9.80873987	     -3.48627663	      6.58895615	     19.86663039	     -2.17349592	     -6.85582343	    -56.37664158	     11.24236150	      7.22858067	      6.42515305	     -6.71603599	      3.20801339	      0.12714326
      0.90850000	      0.37157857	      2.40990418	      1.09022769	     -0.26752995	      1.08913748	      0.33966163	      1.31904348	      0.49791003	     -2.09692202	     -9.92211624	      9.91896380	     -3.49881151	      6.58232720	     20.25014057	     -2.08821298	     -7.02029563	    -55.45231299	     11.25085748	      7.16473182	      6.41324042	     -6.68678076	      3.07348365	      0.17116128
      0.91266667	      0.34723426	      2.50640110	      0.95003579	     -0.26299024	      1.08916802	      0.34007359	      0.98337079	      0.41873302	     -1.94239930	     -9.70837086	     10.01467158	     -3.55295608	      6.57017274	     20.59510632	     -1.99544430	     -7.16920425	    -54.48410234	     11.22782392	      7.04815420	      6.39472573	     -6.69243512	      2.95171896	      0.25696275
      0.91683333	      0.29309874	      2.57975509	      0.83442112	     -0.25841603	      1.08906817	      0.34045126	      0.66476563	      0.36357794	     -1.80781167	     -9.46520158	     10.12442920	     -3.55197282	      6.56342632	     20.97503480	     -1.92782300	     -7.30106004	    -53.52284641	     11.23336571	      6.95142223	      6.38086543	     -6.65847695	      2.83701993	      0.29940965
      0.92100000	      0.24561956	      2.65518361	      0.70769024	     -0.25389086	      1.08896355	      0.34080892	      0.36412832	      0.30158272	     -1.66860842	     -9.27229645	     10.22784406	     -3.59686469	      6.55119613	     21.32926834	     -1.84725413	     -7.41177472	    -52.51198836	     11.19419866	      6.78620922	      6.35919088	     -6.63927167	      2.74157587	      0.37085848
      0.92516667	      0.19663616	      2.70598767	      0.60501957	     -0.24934999	      1.08879260	      0.34114136	      0.04663386	      0.26700647	     -1.54485996	     -9.04055243	     10.34562817	     -3.57761160	      6.54565421	     21.68562843	     -1.79362910	     -7.50323551	    -51.50154212	     11.19309458	      6.66726863	      6.34493725	     -6.60166633	      2.65670791	      0.39771539
      0.92933333	      0.13593604	      2.78234242	      0.48546764	     -0.24485203	      1.08857885	      0.34145084	     -0.22536942	      0.19716267	     -1.43018813	     -8.87485633	     10.46118322	     -3.61837936	      6.53276563	     22.03346727	     -1.70289030	     -7.59323690	    -50.43896871	     11.12667947	      6.43626866	      6.31944271	     -6.59201423	      2.56330435	      0.45498335
      0.93350000	      0.06424864	      2.83006243	      0.38695901	     -0.24032230	      1.08828976	      0.34172797	     -0.50581220	      0.15876188	     -1.31800667	     -8.66888139	     10.58634118	     -3.60764499	      6.52360668	     22.39121968	     -1.64362708	     -7.66668153	    -49.37657512	     11.09758264	      6.25968041	      6.29863988	     -6.55123877	      2.49054003	      0.48413882
      0.93766667	     -0.00470077	      2.86874378	      0.28716005	     -0.23583984	      1.08797129	      0.34198468	     -0.76721046	      0.12680137	     -1.22276991	     -8.50671048	     10.70923706	     -3.61530933	      6.51129373	     22.73452525	     -1.58435193	     -7.71019974	    -48.28280570	     11.04219920	      6.03307661	      6.27255625	     -6.51776420	      2.43664813	      0.51823925
      0.94183333	     -0.08089677	      2.90018220	      0.19778602	     -0.23132887	      1.08760593	      0.34222312	     -1.03525404	      0.10202274	     -1.12818858	     -8.31538046	     10.83916385	     -3.59699736	      6.50153487	     23.07603776	     -1.53472656	     -7.75542711	    -47.17384684	     11.00191132	      5.83359107	      6.24959422	     -6.48213243	      2.39042667	      0.53425584
      0.94600000	     -0.16315125	      2.92601690	      0.10865337	     -0.22683743	      1.08718998	      0.34243943	     -1.28102267	      0.08018948	     -1.04649039	     -8.15849107	     10.97193610	     -3.58325229	      6.48964073	     23.41048473	     -1.48196885	     -7.77350818	    -46.03627668	     10.94359685	      5.59806148	      6.22282171	     -6.43675559	      2.35058496	      0.55071200
